name D:\school\WTK\thesis\model\3dpredictsim\Results\MidTarsalJoint\Fal_s1_bCst_PF_Natali2010_ls150_MT_k400_MTP_T5_ig24_PFx2.mot
datacolumns 128
datarows 4
range 1.68560698 1.71931912
endheader
time	pelvis_tilt	pelvis_list	pelvis_rotation	pelvis_tx	pelvis_ty	pelvis_tz	hip_flexion_l	hip_adduction_l	hip_rotation_l	hip_flexion_r	hip_adduction_r	hip_rotation_r	knee_angle_l	knee_angle_r	ankle_angle_l	ankle_angle_r	subtalar_angle_l	subtalar_angle_r	mtj_angle_l	mtj_angle_r	mtp_angle_l	mtp_angle_r	lumbar_extension	lumbar_bending	lumbar_rotation	arm_flex_l	arm_add_l	arm_rot_l	arm_flex_r	arm_add_r	arm_rot_r	elbow_flex_l	elbow_flex_r	pro_sup_l	pro_sup_r	glut_med1_l/activation	glut_med2_l/activation	glut_med3_l/activation	glut_min1_l/activation	glut_min2_l/activation	glut_min3_l/activation	semimem_l/activation	semiten_l/activation	bifemlh_l/activation	bifemsh_l/activation	sar_l/activation	add_long_l/activation	add_brev_l/activation	add_mag1_l/activation	add_mag2_l/activation	add_mag3_l/activation	tfl_l/activation	pect_l/activation	grac_l/activation	glut_max1_l/activation	glut_max2_l/activation	glut_max3_l/activation	iliacus_l/activation	psoas_l/activation	quad_fem_l/activation	gem_l/activation	peri_l/activation	rect_fem_l/activation	vas_med_l/activation	vas_int_l/activation	vas_lat_l/activation	med_gas_l/activation	lat_gas_l/activation	soleus_l/activation	tib_post_l/activation	flex_dig_l/activation	flex_hal_l/activation	tib_ant_l/activation	per_brev_l/activation	per_long_l/activation	per_tert_l/activation	ext_dig_l/activation	ext_hal_l/activation	ercspn_l/activation	intobl_l/activation	extobl_l/activation	glut_med1_r/activation	glut_med2_r/activation	glut_med3_r/activation	glut_min1_r/activation	glut_min2_r/activation	glut_min3_r/activation	semimem_r/activation	semiten_r/activation	bifemlh_r/activation	bifemsh_r/activation	sar_r/activation	add_long_r/activation	add_brev_r/activation	add_mag1_r/activation	add_mag2_r/activation	add_mag3_r/activation	tfl_r/activation	pect_r/activation	grac_r/activation	glut_max1_r/activation	glut_max2_r/activation	glut_max3_r/activation	iliacus_r/activation	psoas_r/activation	quad_fem_r/activation	gem_r/activation	peri_r/activation	rect_fem_r/activation	vas_med_r/activation	vas_int_r/activation	vas_lat_r/activation	med_gas_r/activation	lat_gas_r/activation	soleus_r/activation	tib_post_r/activation	flex_dig_r/activation	flex_hal_r/activation	tib_ant_r/activation	per_brev_r/activation	per_long_r/activation	per_tert_r/activation	ext_dig_r/activation	ext_hal_r/activation	ercspn_r/activation	intobl_r/activation	extobl_r/activation	
          1.68560698	         -2.93017646	          1.99167960	         -5.23752709	          2.10700872	          0.92017606	          0.00209359	         29.41417416	          3.17453797	         -2.73719459	        -16.79519752	         -0.87017329	          6.69540495	        -12.06843318	         -7.70887986	          5.15584095	         -1.89073066	         -2.62721589	          9.02618758	         -0.11454313	          3.47362866	          0.63514803	         15.26063569	         -2.12329849	         -0.24790092	          1.81848233	         -5.11584468	        -13.45371697	          5.34685685	          4.64212391	        -13.45406145	         15.71490681	         17.86252358	         34.64824485	         86.51662706	         86.51662706	          0.05936445	          0.05000178	          0.05935958	          0.05000054	          0.05000076	          0.05000373	          0.06551766	          0.05936501	          0.21571768	          0.05000068	          0.05000054	          0.12131863	          0.20947755	          0.17966413	          0.17045134	          0.09919857	          0.05000323	          0.05001880	          0.12451045	          0.05936483	          0.05936729	          0.10411646	          0.05000013	          0.05000013	          0.22226060	          0.05003013	          0.05000391	          0.05000012	          0.07695894	          0.07942368	          0.06549626	          0.05841935	          0.05000229	          0.05936442	          0.05000009	          0.05000060	          0.05000056	          0.48404938	          0.25755729	          0.17248464	          0.10357042	          0.46194142	          0.05000018	          0.05936443	          0.12037222	          0.10187770	          0.32369234	          0.09935867	          0.07862974	          0.30970894	          0.20413852	          0.10650062	          0.05000101	          0.05000024	          0.05000016	          0.06153130	          0.10398099	          0.05000025	          0.05000017	          0.05000021	          0.05000057	          0.05000041	          0.31952303	          0.05000099	          0.05000039	          0.05000727	          0.05000244	          0.05000088	          0.38338696	          0.61138268	          0.05000012	          0.05000046	          0.05000090	          0.19743647	          0.05000058	          0.05000059	          0.05000055	          0.28887809	          0.39242216	          0.33270671	          0.27934916	          0.26439074	          0.35049687	          0.05000007	          0.05936831	          0.13481669	          0.05000041	          0.05000011	          0.05000038	          0.05000002	          0.05000001	          0.05000006	
          1.69684436	         -2.92765377	          2.07740594	         -5.49497744	          2.12389229	          0.91932009	          0.00188110	         28.79628849	          3.57274622	         -2.55581686	        -16.66926774	         -1.16221497	          6.50691770	        -12.06113347	         -9.59639560	          4.51812496	         -2.47481992	         -3.02729605	         10.02025294	         -0.14060053	          2.75640982	          0.62997957	         16.87184694	         -1.93187341	         -0.45300722	          1.89221483	         -5.97016456	        -13.44986574	          5.02060020	          4.37638689	        -13.46543323	         16.07982658	         17.49759809	         35.75278840	         86.51662706	         86.51662706	          0.05000007	          0.05000011	          0.05000033	          0.05000031	          0.05000026	          0.05000016	          0.05518257	          0.05000052	          0.18168934	          0.05000075	          0.05936381	          0.11190308	          0.24687437	          0.28775397	          0.17560490	          0.08355115	          0.05000012	          0.07048725	          0.10487067	          0.05000064	          0.05000248	          0.12511241	          0.07048101	          0.06573032	          0.55536363	          0.19289005	          0.17439488	          0.07538989	          0.19964120	          0.19912796	          0.17121723	          0.05000001	          0.05000004	          0.05000000	          0.05008209	          0.05000224	          0.05000499	          0.55350269	          0.21692894	          0.18720540	          0.24740814	          0.48596619	          0.05936568	          0.05000002	          0.10138404	          0.08580695	          0.27263141	          0.08368531	          0.06622635	          0.26085389	          0.17193666	          0.08970068	          0.05000407	          0.05000067	          0.05000097	          0.05182514	          0.08757871	          0.12109717	          0.09850033	          0.06536695	          0.05001265	          0.05000557	          0.26911988	          0.09823345	          0.05570682	          0.05000263	          0.05000162	          0.05000189	          0.32290945	          0.52207175	          0.05000357	          0.05936748	          0.05936459	          0.16629179	          0.14160081	          0.13567927	          0.11924384	          0.24330887	          0.33051935	          0.28314053	          0.23878703	          0.22268506	          0.29520859	          0.05000002	          0.05000343	          0.12067486	          0.05000011	          0.05000002	          0.05000013	          0.05000005	          0.07048402	          0.05777657	
          1.70808174	         -2.92092781	          2.16715910	         -5.72440984	          2.14111164	          0.91847037	          0.00169350	         28.03950145	          3.88283899	         -2.30776897	        -16.49042958	         -1.45549768	          6.30716522	        -12.42907814	        -11.56613047	          3.94771063	         -3.20903864	         -3.44896464	         10.98053360	         -0.28445510	          1.93307433	          0.61407911	         18.51716359	         -1.71646875	         -0.67116019	          1.95500634	         -6.85617534	        -13.45420372	          4.74780096	          4.02725898	        -13.47470700	         16.36749716	         17.17319094	         36.84804008	         86.51662706	         86.51662706	          0.26834752	          0.05000041	          0.05000043	          0.05000034	          0.05000036	          0.28937421	          0.07733702	          0.08713366	          0.16165059	          0.05000013	          0.05000045	          0.09425095	          0.20793117	          0.24236220	          0.14790427	          0.10283054	          0.05000140	          0.05936928	          0.08832838	          0.05000080	          0.10494394	          0.10537662	          0.05936360	          0.05536184	          0.46775752	          0.16246259	          0.18670921	          0.06349748	          0.16814877	          0.16771649	          0.14420854	          0.05579314	          0.05551657	          0.05585618	          0.05000010	          0.05000047	          0.05000050	          0.51160169	          0.31075903	          0.15767477	          0.20838077	          0.54128098	          0.05000102	          0.05000002	          0.11297816	          0.07227130	          0.35937433	          0.07048435	          0.05577953	          0.21970563	          0.14481450	          0.07555085	          0.05000263	          0.05000057	          0.05000039	          0.05000014	          0.07376381	          0.14891995	          0.14252552	          0.05936608	          0.05936364	          0.05936309	          0.22666864	          0.08333827	          0.05001256	          0.05009336	          0.05369972	          0.05936320	          0.27197209	          0.51012868	          0.05936353	          0.05000322	          0.05000018	          0.14006003	          0.12156826	          0.11428251	          0.10043517	          0.20492798	          0.27838141	          0.23847638	          0.20111949	          0.18755764	          0.24864089	          0.05000009	          0.05000022	          0.15704131	          0.05000018	          0.05000030	          0.05000029	          0.05464764	          0.05936549	          0.05936459	
          1.71931912	         -2.91168845	          2.26126619	         -5.91916812	          2.15847958	          0.91763512	          0.00149834	         27.16441698	          4.14059439	         -2.05020082	        -16.21440258	         -1.74455786	          6.10795887	        -12.76649410	        -13.68096815	          3.46944489	         -4.08055022	         -3.87899110	         11.89071284	         -0.21812548	          1.04168639	          0.62662965	         20.09768471	         -1.49669016	         -0.90109321	          2.00888512	         -7.73017976	        -13.46494366	          4.54042134	          3.62217155	        -13.48753773	         16.59192131	         16.86658974	         37.92451335	         86.51662706	         86.51662706	          0.34235418	          0.26782291	          0.26184344	          0.10834504	          0.22960946	          0.24372705	          0.06513753	          0.07339243	          0.13615097	          0.07048507	          0.05000510	          0.07938332	          0.17513099	          0.20413082	          0.12457339	          0.13795193	          0.05000046	          0.05000437	          0.07439530	          0.19512868	          0.15896315	          0.11231666	          0.05000008	          0.05000010	          0.39397091	          0.13683496	          0.15725685	          0.05348107	          0.15455289	          0.17138244	          0.13004338	          0.05000027	          0.05000030	          0.05000005	          0.05000002	          0.05000014	          0.05000015	          0.60170566	          0.29414086	          0.15660198	          0.54283563	          0.54565675	          0.25406785	          0.07085769	          0.09515639	          0.06087083	          0.30268514	          0.05936579	          0.05000006	          0.31445716	          0.12197076	          0.06363310	          0.05000327	          0.05000022	          0.05000019	          0.05000038	          0.06212868	          0.13322021	          0.12004302	          0.05000169	          0.05000101	          0.05000056	          0.20840972	          0.07047931	          0.05000066	          0.05000096	          0.05000056	          0.05000043	          0.22906976	          0.45950414	          0.05000008	          0.05000047	          0.05000038	          0.11796621	          0.10246908	          0.11796355	          0.11796439	          0.17260151	          0.23446799	          0.20085779	          0.16939383	          0.15797138	          0.20941899	          0.09025027	          0.13181945	          0.14316512	          0.05000171	          0.12203248	          0.05000178	          0.07278871	          0.05000085	          0.05000011	
